<svg width="25" height="15" viewBox="0 0 25 15" version="1.1" xmlns="http://www.w3.org/2000/svg" xmlns:xlink="http://www.w3.org/1999/xlink">
<title>vk</title>
<desc>Created using Figma</desc>
<g id="Canvas" transform="translate(-4075 -8870)">
<g id="vk">
<use xlink:href="#path0_fill" transform="translate(4075 8870)" fill="#FFFFFF"/>
</g>
</g>
<defs>
<path id="path0_fill" d="M 24.8674 13.5466C 24.8371 13.478 24.8089 13.4211 24.7827 13.3755C 24.349 12.554 23.5201 11.5456 22.2966 10.3502L 22.2707 10.3228L 22.2578 10.3094L 22.2447 10.2956L 22.2316 10.2956C 21.6763 9.73891 21.3246 9.36461 21.1774 9.17297C 20.9079 8.80793 20.8476 8.43842 20.9948 8.06402C 21.0989 7.78115 21.4897 7.18377 22.1663 6.27105C 22.5222 5.78734 22.8041 5.39966 23.0123 5.10758C 24.5136 3.00858 25.1645 1.66729 24.9648 1.08319L 24.8873 0.94669C 24.8352 0.864514 24.7007 0.789337 24.484 0.720777C 24.2668 0.65236 23.9892 0.641045 23.6507 0.68664L 19.9021 0.713873C 19.8413 0.691243 19.7546 0.693353 19.6416 0.720777C 19.5288 0.748201 19.4724 0.761961 19.4724 0.761961L 19.4071 0.796241L 19.3553 0.837425C 19.3119 0.864658 19.2642 0.912554 19.2121 0.981018C 19.1603 1.04924 19.1169 1.12931 19.0822 1.22055C 18.6741 2.32475 18.2101 3.35138 17.6893 4.30039C 17.3682 4.86628 17.0733 5.3567 16.804 5.77195C 16.5351 6.18705 16.3095 6.49289 16.1274 6.68893C 15.945 6.88517 15.7804 7.04238 15.6326 7.16114C 15.4851 7.27994 15.3724 7.33014 15.2944 7.31178C 15.2162 7.29341 15.1426 7.2752 15.0729 7.25698C 14.9515 7.1748 14.8538 7.06304 14.7802 6.92161C 14.7062 6.78017 14.6565 6.60215 14.6304 6.3877C 14.6045 6.1731 14.5892 5.98851 14.5848 5.83332C 14.5808 5.67831 14.5826 5.45906 14.5914 5.17619C 14.6005 4.89318 14.6045 4.70169 14.6045 4.60129C 14.6045 4.25446 14.611 3.87805 14.6239 3.47197C 14.637 3.06588 14.6476 2.74412 14.6565 2.50709C 14.6653 2.26981 14.6694 2.01877 14.6694 1.75412C 14.6694 1.48947 14.6541 1.28192 14.6239 1.13128C 14.5939 0.980827 14.548 0.834788 14.4875 0.693209C 14.4267 0.551773 14.3376 0.442364 14.2207 0.364694C 14.1036 0.28712 13.958 0.22556 13.7847 0.179821C 13.3247 0.0703642 12.739 0.011153 12.0273 0.00194768C 10.4133 -0.0162712 9.37629 0.0933295 8.91637 0.330606C 8.73415 0.430857 8.56925 0.567834 8.42181 0.741105C 8.26557 0.941944 8.24378 1.05154 8.35657 1.06957C 8.8773 1.1516 9.24595 1.34784 9.46291 1.65809L 9.5411 1.82249C 9.60192 1.9411 9.66264 2.1511 9.72342 2.45219C 9.7841 2.75328 9.82326 3.08635 9.84049 3.45121C 9.8838 4.11749 9.8838 4.68783 9.84049 5.16229C 9.79705 5.63694 9.75601 6.00645 9.71685 6.2711C 9.67769 6.53575 9.61915 6.75021 9.5411 6.91441C 9.46291 7.07867 9.41089 7.17907 9.38482 7.2155C 9.35878 7.25194 9.33708 7.27491 9.31985 7.28392C 9.20706 7.32937 9.08975 7.35253 8.96835 7.35253C 8.84676 7.35253 8.69932 7.28857 8.5258 7.16075C 8.35233 7.03293 8.17229 6.85736 7.98569 6.63375C 7.79909 6.41009 7.58864 6.09754 7.35426 5.69605C 7.12006 5.29457 6.87706 4.82006 6.6254 4.27254L 6.41719 3.87546C 6.28703 3.62002 6.10923 3.24806 5.8836 2.75994C 5.65783 2.27163 5.45828 1.79928 5.28481 1.343C 5.21547 1.15136 5.11129 1.00547 4.97247 0.905075L 4.90732 0.86389C 4.86401 0.827453 4.79448 0.788762 4.69911 0.74753C 4.6036 0.706345 4.50394 0.676812 4.39972 0.658641L 0.833213 0.685873C 0.468762 0.685873 0.221479 0.7727 0.0912723 0.946115L 0.0391623 1.02815C 0.0131301 1.07384 0 1.14681 0 1.24725C 0 1.34765 0.0260322 1.47087 0.0781422 1.61676C 0.598786 2.90359 1.16498 4.14462 1.77671 5.34007C 2.38844 6.53551 2.92003 7.49847 3.37115 8.22809C 3.82236 8.95823 4.28227 9.64734 4.7509 10.2951C 5.21953 10.943 5.52972 11.3583 5.68149 11.5407C 5.83345 11.7235 5.9528 11.8601 6.03956 11.9513L 6.36503 12.2798C 6.57329 12.4989 6.87911 12.7612 7.28264 13.0669C 7.68625 13.3727 8.13308 13.6738 8.62336 13.9706C 9.11373 14.267 9.68421 14.5088 10.3351 14.6958C 10.9859 14.883 11.6193 14.9582 12.2355 14.9219L 13.7324 14.9219C 14.036 14.8944 14.266 14.794 14.4223 14.6207L 14.4741 14.5521C 14.509 14.4976 14.5416 14.413 14.5717 14.2991C 14.6021 14.1851 14.6172 14.0594 14.6172 13.9227C 14.6084 13.5304 14.6368 13.1768 14.7017 12.862C 14.7666 12.5473 14.8405 12.31 14.9232 12.1502C 15.0059 11.9906 15.0991 11.8558 15.2029 11.7466C 15.307 11.6372 15.3811 11.5709 15.4246 11.548C 15.4678 11.5251 15.5023 11.5095 15.5284 11.5001C 15.7366 11.4272 15.9817 11.4978 16.264 11.7125C 16.5461 11.9269 16.8107 12.1917 17.0581 12.5064C 17.3054 12.8214 17.6026 13.1748 17.9496 13.5672C 18.2969 13.9596 18.6005 14.2514 18.8608 14.4433L 19.121 14.6076C 19.2948 14.7172 19.5204 14.8176 19.7982 14.9088C 20.0754 15 20.3183 15.0228 20.5269 14.9772L 23.8589 14.9226C 24.1885 14.9226 24.445 14.8652 24.6269 14.7513C 24.8091 14.6372 24.9174 14.5116 24.9523 14.3749C 24.9872 14.2381 24.989 14.0828 24.959 13.9092C 24.9281 13.7361 24.8977 13.6151 24.8674 13.5466Z"/>
</defs>
</svg>
